<?xml version="1.0" encoding="utf-8"?>
<!-- Generator: Adobe Illustrator 13.0.1, SVG Export Plug-In . SVG Version: 6.00 Build 14948)  -->
<!DOCTYPE svg PUBLIC "-//W3C//DTD SVG 1.1//EN" "http://www.w3.org/Graphics/SVG/1.1/DTD/svg11.dtd">
<svg version="1.1" id="Layer_1" xmlns="http://www.w3.org/2000/svg" xmlns:xlink="http://www.w3.org/1999/xlink" x="0px" y="0px"
	 width="238.648px" height="66.68px" viewBox="0 0 238.648 66.68" enable-background="new 0 0 238.648 66.68" xml:space="preserve">
<g enable-background="new    ">
	<path fill="#B51E3A" d="M25.663,55.08h-7.193l-1.231-8.23H8.49l-1.231,8.23H0.713L7.971,9.717h10.434L25.663,55.08z M9.397,40.693
		h6.869l-3.435-22.94L9.397,40.693z"/>
</g>
<g enable-background="new    ">
	<path fill="none" stroke="#FFFFFF" stroke-width="0.4" d="M25.663,55.08h-7.193l-1.231-8.23H8.49l-1.231,8.23H0.713L7.971,9.717
		h10.434L25.663,55.08z M9.397,40.693h6.869l-3.435-22.94L9.397,40.693z"/>
</g>
<g enable-background="new    ">
	<path fill="#B51E3A" d="M44.518,55.08c-0.389-1.166-0.648-1.879-0.648-5.573v-7.128c0-4.213-1.426-5.768-4.666-5.768h-2.462V55.08
		h-7.128V9.717h10.757c7.388,0,10.563,3.435,10.563,10.434v3.564c0,4.666-1.49,7.712-4.666,9.202
		c3.564,1.49,4.731,4.925,4.731,9.656v6.998c0,2.204,0.065,3.824,0.778,5.509H44.518z M36.742,16.197v13.934h2.787
		c2.657,0,4.277-1.167,4.277-4.796v-4.472c0-3.24-1.102-4.666-3.629-4.666H36.742z"/>
</g>
<g enable-background="new    ">
	<path fill="none" stroke="#FFFFFF" stroke-width="0.4" d="M44.518,55.08c-0.389-1.166-0.648-1.879-0.648-5.573v-7.128
		c0-4.213-1.426-5.768-4.666-5.768h-2.462V55.08h-7.128V9.717h10.757c7.388,0,10.563,3.435,10.563,10.434v3.564
		c0,4.666-1.49,7.712-4.666,9.202c3.564,1.49,4.731,4.925,4.731,9.656v6.998c0,2.204,0.065,3.824,0.778,5.509H44.518z
		 M36.742,16.197v13.934h2.787c2.657,0,4.277-1.167,4.277-4.796v-4.472c0-3.24-1.102-4.666-3.629-4.666H36.742z"/>
</g>
<g enable-background="new    ">
	<path fill="#B51E3A" d="M53.914,9.717h22.033v6.48h-7.453V55.08h-7.128V16.197h-7.452V9.717z"/>
</g>
<g enable-background="new    ">
	<path fill="none" stroke="#FFFFFF" stroke-width="0.4" d="M53.914,9.717h22.033v6.48h-7.453V55.08h-7.128V16.197h-7.452V9.717z"/>
</g>
<g enable-background="new    ">
	<path fill="#B0B0B1" d="M79.703,9.717h7.128V55.08h-7.128V9.717z"/>
	<path fill="#B0B0B1" d="M107.114,41.925l4.86-32.208h9.915V55.08h-6.74V22.549l-4.925,32.531h-6.74l-5.314-32.078V55.08h-6.221
		V9.717h9.915L107.114,41.925z"/>
	<path fill="#B0B0B1" d="M134.199,28.834h9.785v6.48h-9.785v13.285h12.313v6.48h-19.441V9.717h19.441v6.48h-12.313V28.834z"/>
	<path fill="#B0B0B1" d="M150.916,9.717h7.129v38.883h11.729v6.48h-18.857V9.717z"/>
	<path fill="#B0B0B1" d="M172.883,9.717h7.129V55.08h-7.129V9.717z"/>
	<path fill="#B0B0B1" d="M191.545,22.224V55.08h-6.416V9.717h8.943l7.322,27.153V9.717h6.352V55.08h-7.323L191.545,22.224z"/>
	<path fill="#B0B0B1" d="M219.991,28.834h9.785v6.48h-9.785v13.285h12.313v6.48h-19.44V9.717h19.44v6.48h-12.313V28.834z"/>
</g>
<g enable-background="new    ">
	<path fill="none" stroke="#FFFFFF" stroke-width="0.4" d="M79.703,9.717h7.128V55.08h-7.128V9.717z"/>
	<path fill="none" stroke="#FFFFFF" stroke-width="0.4" d="M107.114,41.925l4.86-32.208h9.915V55.08h-6.74V22.549l-4.925,32.531
		h-6.74l-5.314-32.078V55.08h-6.221V9.717h9.915L107.114,41.925z"/>
	<path fill="none" stroke="#FFFFFF" stroke-width="0.4" d="M134.199,28.834h9.785v6.48h-9.785v13.285h12.313v6.48h-19.441V9.717
		h19.441v6.48h-12.313V28.834z"/>
	<path fill="none" stroke="#FFFFFF" stroke-width="0.4" d="M150.916,9.717h7.129v38.883h11.729v6.48h-18.857V9.717z"/>
	<path fill="none" stroke="#FFFFFF" stroke-width="0.4" d="M172.883,9.717h7.129V55.08h-7.129V9.717z"/>
	<path fill="none" stroke="#FFFFFF" stroke-width="0.4" d="M191.545,22.224V55.08h-6.416V9.717h8.943l7.322,27.153V9.717h6.352
		V55.08h-7.323L191.545,22.224z"/>
	<path fill="none" stroke="#FFFFFF" stroke-width="0.4" d="M219.991,28.834h9.785v6.48h-9.785v13.285h12.313v6.48h-19.44V9.717
		h19.44v6.48h-12.313V28.834z"/>
</g>
</svg>
